<svg width="152" height="134" viewBox="0 0 152 134" fill="none" xmlns="http://www.w3.org/2000/svg">
<path d="M115.145 44.751H19.4617C8.7133 44.751 0 52.8318 0 62.8V65.7939C0 75.7621 8.7133 83.8429 19.4617 83.8429H115.145C125.894 83.8429 134.607 75.7621 134.607 65.7939V62.8C134.607 52.8318 125.894 44.751 115.145 44.751Z" fill="#FFDE73"/>
<path d="M50.2897 60.7933L15.4695 93.0861C7.86924 100.135 7.86924 111.563 15.4695 118.611L17.7522 120.728C25.3525 127.777 37.675 127.777 45.2752 120.728L80.0955 88.4355C87.6957 81.387 87.6957 69.959 80.0955 62.9104L77.8127 60.7934C70.2125 53.7448 57.89 53.7448 50.2897 60.7933Z" fill="#FFDE73"/>
<path d="M119.138 93.0885L84.3181 60.7958C76.7179 53.7472 64.3954 53.7472 56.7951 60.7958L54.5124 62.9128C46.9122 69.9614 46.9122 81.3894 54.5124 88.438L89.3327 120.731C96.9329 127.779 109.255 127.779 116.856 120.731L119.138 118.614C126.739 111.565 126.739 100.137 119.138 93.0885Z" fill="#FFDE73"/>
<path d="M46.229 43.0485V65.7947C46.229 75.7629 54.9423 83.8438 65.6907 83.8438H68.919C79.6674 83.8438 88.3807 75.7629 88.3807 65.7947V43.0485C88.3807 33.0803 79.6674 24.9995 68.919 24.9995H65.6907C54.9423 24.9995 46.229 33.0803 46.229 43.0485Z" fill="#FFDE73"/>
<path d="M75.358 64.2861C73.9291 58.9163 77.9806 53.3702 84.4077 51.8996C90.8348 50.429 97.2032 53.5902 98.6321 58.96" stroke="#1F2937" stroke-width="4.36563" stroke-linecap="round" stroke-linejoin="round"/>
<path d="M68.7501 81.94C71.1933 81.94 73.174 79.4602 73.174 76.4012C73.174 73.3421 71.1933 70.8623 68.7501 70.8623C66.3068 70.8623 64.3262 73.3421 64.3262 76.4012C64.3262 79.4602 66.3068 81.94 68.7501 81.94Z" stroke="#1F2937" stroke-width="4.36563" stroke-linecap="round" stroke-linejoin="round"/>
<path d="M49.0021 75.5335C57.4458 75.5335 64.2907 67.5169 64.2907 57.6281C64.2907 47.7392 57.4458 39.7227 49.0021 39.7227C40.5584 39.7227 33.7134 47.7392 33.7134 57.6281C33.7134 67.5169 40.5584 75.5335 49.0021 75.5335Z" fill="white"/>
<path d="M44.5919 72.2601C50.5999 72.2601 55.4703 66.4817 55.4703 59.3537C55.4703 52.2257 50.5999 46.4473 44.5919 46.4473C38.5838 46.4473 33.7134 52.2257 33.7134 59.3537C33.7134 66.4817 38.5838 72.2601 44.5919 72.2601Z" fill="#1F2937"/>
<path d="M112.5 19.7139C112.5 9.10244 121.102 0.500227 131.714 0.499999L133.429 0.499999C143.094 0.50007 150.929 8.33506 150.929 18C150.929 27.6649 143.094 35.4999 133.429 35.5L112.5 35.5L112.5 19.7139Z" fill="#DBEAFE" stroke="#C4DDFF"/>
<rect x="130" y="11.1426" width="4.28571" height="13.7143" rx="2.14286" fill="#76AFEE"/>
<rect x="139.429" y="14.5713" width="4.28571" height="6.85714" rx="2.14286" fill="#93C5FD"/>
<rect x="120.571" y="14.5713" width="4.28571" height="6.85714" rx="2.14286" fill="#93C5FD"/>
</svg>
