<svg width="150" height="156" viewBox="0 0 150 156" fill="none" xmlns="http://www.w3.org/2000/svg">
<path d="M127.98 53.459H21.631C9.68454 53.459 0 62.7746 0 74.2661V77.7175C0 89.209 9.68454 98.5247 21.631 98.5247H127.98C139.927 98.5247 149.611 89.209 149.611 77.7175V74.2661C149.611 62.7746 139.927 53.459 127.98 53.459Z" fill="#FFDE73"/>
<path d="M55.8954 71.9533L17.1939 109.181C8.74644 117.306 8.74644 130.481 17.1939 138.606L19.7311 141.047C28.1785 149.173 41.8745 149.173 50.3219 141.047L89.0234 103.82C97.4709 95.6938 97.4709 82.5195 89.0234 74.3938L86.4863 71.9533C78.0388 63.8276 64.3428 63.8276 55.8954 71.9533Z" fill="#FFDE73"/>
<path d="M132.418 109.182L93.7168 71.955C85.2694 63.8294 71.5734 63.8294 63.1259 71.955L60.5888 74.3956C52.1413 82.5213 52.1413 95.6956 60.5888 103.821L99.2903 141.049C107.738 149.174 121.434 149.174 129.881 141.049L132.418 138.608C140.866 130.482 140.866 117.308 132.418 109.182Z" fill="#FFDE73"/>
<path d="M51.3816 51.4962V77.7183C51.3816 89.2097 61.0661 98.5254 73.0126 98.5254H76.6007C88.5472 98.5254 98.2317 89.2097 98.2317 77.7183V51.4962C98.2317 40.0047 88.5472 30.689 76.6007 30.689H73.0126C61.0661 30.689 51.3816 40.0047 51.3816 51.4962Z" fill="#FFDE73"/>
<path d="M83.7579 75.9792C82.1697 69.7888 86.6728 63.3952 93.8163 61.6998C100.96 60.0045 108.038 63.6487 109.626 69.8391" stroke="#1F2937" stroke-width="4.85225" stroke-linecap="round" stroke-linejoin="round"/>
<path d="M76.4134 96.3311C79.129 96.3311 81.3304 93.4723 81.3304 89.9458C81.3304 86.4193 79.129 83.5605 76.4134 83.5605C73.6978 83.5605 71.4963 86.4193 71.4963 89.9458C71.4963 93.4723 73.6978 96.3311 76.4134 96.3311Z" stroke="#1F2937" stroke-width="4.85225" stroke-linecap="round" stroke-linejoin="round"/>
<path d="M54.4643 88.9452C63.8492 88.9452 71.4571 79.7037 71.4571 68.3037C71.4571 56.9037 63.8492 47.6621 54.4643 47.6621C45.0794 47.6621 37.4714 56.9037 37.4714 68.3037C37.4714 79.7037 45.0794 88.9452 54.4643 88.9452Z" fill="white"/>
<path d="M49.5625 85.1734C56.2402 85.1734 61.6536 78.512 61.6536 70.2947C61.6536 62.0774 56.2402 55.416 49.5625 55.416C42.8848 55.416 37.4714 62.0774 37.4714 70.2947C37.4714 78.512 42.8848 85.1734 49.5625 85.1734Z" fill="#1F2937"/>
<rect x="78" y="1.21582" width="8" height="18.6317" rx="4" transform="rotate(-8.74239 78 1.21582)" fill="#FFDE73"/>
<rect x="120.405" y="14.6631" width="8" height="18.6316" rx="4" transform="rotate(60.3966 120.405 14.6631)" fill="#FFDE73"/>
<rect x="102.646" y="0.0917969" width="8" height="18.6317" rx="4" transform="rotate(25.1885 102.646 0.0917969)" fill="#FFDE73"/>
</svg>
