<svg width="34" height="34" viewBox="0 0 34 34" fill="none" xmlns="http://www.w3.org/2000/svg">
<circle cx="17" cy="17" r="17" fill="url(#paint0_linear_2110_6355)"/>
<path d="M10.8824 21.25C13.7631 21.25 16.0983 18.3958 16.0983 14.875C16.0983 11.3542 13.7631 8.5 10.8824 8.5C8.00175 8.5 5.6665 11.3542 5.6665 14.875C5.6665 18.3958 8.00175 21.25 10.8824 21.25Z" fill="white"/>
<path d="M22.4737 21.25C25.3544 21.25 27.6896 18.3958 27.6896 14.875C27.6896 11.3542 25.3544 8.5 22.4737 8.5C19.5931 8.5 17.2578 11.3542 17.2578 14.875C17.2578 18.3958 19.5931 21.25 22.4737 21.25Z" fill="white"/>
<path d="M20.7351 20.0906C22.6555 20.0906 24.2124 18.0148 24.2124 15.4542C24.2124 12.8936 22.6555 10.8179 20.7351 10.8179C18.8146 10.8179 17.2578 12.8936 17.2578 15.4542C17.2578 18.0148 18.8146 20.0906 20.7351 20.0906Z" fill="black"/>
<path d="M9.14378 20.0906C11.0642 20.0906 12.621 18.0148 12.621 15.4542C12.621 12.8936 11.0642 10.8179 9.14378 10.8179C7.22333 10.8179 5.6665 12.8936 5.6665 15.4542C5.6665 18.0148 7.22333 20.0906 9.14378 20.0906Z" fill="black"/>
<defs>
<linearGradient id="paint0_linear_2110_6355" x1="6.07143" y1="4.85714" x2="29.75" y2="29.1429" gradientUnits="userSpaceOnUse">
<stop stop-color="#90B3FF"/>
<stop offset="1" stop-color="#316CEC"/>
</linearGradient>
</defs>
</svg>
