<svg width="16" height="20" viewBox="0 0 16 20" fill="none" xmlns="http://www.w3.org/2000/svg">
<circle cx="8" cy="8" r="8" fill="#BFDBFE"/>
<mask id="mask0_2534_10270" style="mask-type:alpha" maskUnits="userSpaceOnUse" x="0" y="4" width="16" height="16">
<rect y="4" width="16" height="16" fill="#D9D9D9"/>
</mask>
<g mask="url(#mask0_2534_10270)">
<path d="M7.43666 10.3418V4.49825C7.43666 4.35685 7.49045 4.23849 7.59803 4.14316C7.70548 4.04772 7.83889 4 7.99826 4C8.15763 4 8.29104 4.04772 8.39849 4.14316C8.50607 4.23849 8.55985 4.35685 8.55985 4.49825V10.3418L11.0481 8.13411C11.1518 8.04221 11.2822 7.99516 11.4392 7.99294C11.596 7.99084 11.7287 8.03789 11.8373 8.13411C11.9458 8.23044 12 8.34714 12 8.48421C12 8.62128 11.9458 8.73799 11.8373 8.83431L8.47206 11.82C8.33665 11.94 8.17872 12 7.99826 12C7.8178 12 7.65987 11.94 7.52446 11.82L4.15919 8.83431C4.05561 8.7423 4.00257 8.62666 4.00008 8.48737C3.9977 8.34819 4.05074 8.23044 4.15919 8.13411C4.26777 8.03789 4.39931 7.98979 4.55381 7.98979C4.70831 7.98979 4.83985 8.03789 4.94842 8.13411L7.43666 10.3418Z" fill="white"/>
</g>
</svg>
