<svg width="119" height="95" viewBox="0 0 119 95" fill="none" xmlns="http://www.w3.org/2000/svg">
<g clip-path="url(#clip0_1960_16366)">
<path d="M106.44 12.9512H46.0215C39.2344 12.9512 33.7324 18.2491 33.7324 24.7845V26.7476C33.7324 33.283 39.2344 38.5809 46.0215 38.5809H106.44C113.227 38.5809 118.729 33.283 118.729 26.7476V24.7845C118.729 18.2491 113.227 12.9512 106.44 12.9512Z" fill="#FD6767"/>
<path d="M62.9231 11.8338V26.7463C62.9231 33.2816 68.4251 38.5796 75.2122 38.5796H77.2509C84.038 38.5796 89.54 33.2816 89.54 26.7463V11.8338C89.54 5.29845 84.038 0.000511169 77.2509 0.000511169H75.2122C68.4251 0.000511169 62.9231 5.29845 62.9231 11.8338Z" fill="#FD6767"/>
<path d="M76.2308 83.2487C98.4935 83.2487 116.541 69.4061 116.541 52.3304C116.541 35.2547 98.4935 21.4121 76.2308 21.4121C53.9681 21.4121 35.9207 35.2547 35.9207 52.3304C35.9207 69.4061 53.9681 83.2487 76.2308 83.2487Z" fill="#FD6767"/>
<path d="M86.9429 53.2784L35.4957 38.6739C29.717 37.0334 23.6514 40.2144 21.9478 45.7788L21.4358 47.4511C19.7322 53.0155 23.0357 58.8561 28.8144 60.4966L80.2617 75.1011C86.0403 76.7415 92.1059 73.5605 93.8095 67.9961L94.3215 66.3238C96.0251 60.7594 92.7216 54.9188 86.9429 53.2784Z" fill="#FD6767"/>
<path d="M35.0253 50.8152L16.1175 16.8841C15.6614 16.0658 14.6028 15.7583 13.7529 16.1974L13.0401 16.5657C12.1902 17.0049 11.8709 18.0242 12.3269 18.8426L31.2347 52.7737C31.6907 53.5921 32.7494 53.8995 33.5993 53.4604L34.3121 53.0921C35.162 52.653 35.4813 51.6336 35.0253 50.8152Z" fill="#111827"/>
<path d="M43.4359 86.2042C43.1173 86.059 42.9154 85.7447 42.9324 85.4063C43.2366 79.2631 48.5059 77.5107 54.9606 77.5107C61.4152 77.5107 66.7291 79.306 66.9926 85.4846C67.0057 85.7826 66.8523 86.0641 66.5927 86.2269L66.4341 86.3267C66.2912 86.4163 66.1234 86.4643 65.9529 86.4643H44.6316C44.2173 86.4643 43.8082 86.3759 43.4346 86.2055L43.4359 86.2042Z" fill="#111827"/>
<path d="M85.555 86.2042C85.2364 86.059 85.0345 85.7447 85.0515 85.4063C85.3557 79.2631 90.6251 77.5107 97.0797 77.5107C103.534 77.5107 108.848 79.306 109.112 85.4846C109.125 85.7826 108.971 86.0641 108.712 86.2269L108.553 86.3267C108.41 86.4163 108.243 86.4643 108.072 86.4643H86.7507C86.3364 86.4643 85.9274 86.3759 85.5537 86.2055L85.555 86.2042Z" fill="#111827"/>
<path d="M84.9667 56.0034C84.9667 58.9905 81.1435 61.4107 76.4275 61.4107C71.7114 61.4107 67.8882 58.9892 67.8882 56.0034" fill="#FD6767"/>
<path d="M84.9667 56.0034C84.9667 58.9905 81.1435 61.4107 76.4275 61.4107C71.7114 61.4107 67.8882 58.9892 67.8882 56.0034" stroke="#111827" stroke-width="2.92176" stroke-linecap="round" stroke-linejoin="round"/>
<path d="M65.9857 52.2675C71.6338 52.2675 76.2124 46.6999 76.2124 39.832C76.2124 32.964 71.6338 27.3965 65.9857 27.3965C60.3377 27.3965 55.759 32.964 55.759 39.832C55.759 46.6999 60.3377 52.2675 65.9857 52.2675Z" fill="white"/>
<path d="M63.0357 49.9947C67.0545 49.9947 70.3124 45.9815 70.3124 41.031C70.3124 36.0806 67.0545 32.0674 63.0357 32.0674C59.0169 32.0674 55.759 36.0806 55.759 41.031C55.759 45.9815 59.0169 49.9947 63.0357 49.9947Z" fill="#111827"/>
<path d="M88.2748 52.2675C93.9228 52.2675 98.5015 46.6999 98.5015 39.832C98.5015 32.964 93.9228 27.3965 88.2748 27.3965C82.6267 27.3965 78.0481 32.964 78.0481 39.832C78.0481 46.6999 82.6267 52.2675 88.2748 52.2675Z" fill="white"/>
<path d="M85.3248 49.9947C89.3436 49.9947 92.6015 45.9815 92.6015 41.031C92.6015 36.0806 89.3436 32.0674 85.3248 32.0674C81.306 32.0674 78.0481 36.0806 78.0481 41.031C78.0481 45.9815 81.306 49.9947 85.3248 49.9947Z" fill="#111827"/>
<path d="M59.2911 54.4137C68.3787 54.4137 75.7456 47.3483 75.7456 38.6326C75.7456 29.917 68.3787 22.8516 59.2911 22.8516C50.2036 22.8516 42.8367 29.917 42.8367 38.6326C42.8367 47.3483 50.2036 54.4137 59.2911 54.4137Z" stroke="#111827" stroke-width="2.4981" stroke-miterlimit="9"/>
<path d="M93.5767 54.4137C102.628 54.4137 109.966 47.3483 109.966 38.6326C109.966 29.917 102.628 22.8516 93.5767 22.8516C84.5253 22.8516 77.1877 29.917 77.1877 38.6326C77.1877 47.3483 84.5253 54.4137 93.5767 54.4137Z" stroke="#111827" stroke-width="2.4981" stroke-miterlimit="9"/>
</g>
<defs>
<clipPath id="clip0_1960_16366">
<rect width="118.656" height="94.3078" fill="white"/>
</clipPath>
</defs>
</svg>
