<svg width="24" height="24" viewBox="0 0 24 24" fill="none" xmlns="http://www.w3.org/2000/svg">
<mask id="mask0_2282_265" style="mask-type:alpha" maskUnits="userSpaceOnUse" x="0" y="0" width="24" height="24">
<rect width="24" height="24" fill="#D9D9D9"/>
</mask>
<g mask="url(#mask0_2282_265)">
<path d="M4.12676 22C3.53245 22 3.02941 21.7941 2.61765 21.3824C2.20588 20.9706 2 20.4676 2 19.8732V16.57C2 16.3198 2.08451 16.1102 2.25353 15.9412C2.42235 15.7724 2.63196 15.6879 2.88235 15.6879C3.13275 15.6879 3.34235 15.7724 3.51118 15.9412C3.6802 16.1102 3.76471 16.3198 3.76471 16.57V19.8732C3.76471 19.9638 3.80245 20.0468 3.87794 20.1221C3.95324 20.1975 4.03618 20.2353 4.12676 20.2353H19.8732C19.9638 20.2353 20.0468 20.1975 20.1221 20.1221C20.1975 20.0468 20.2353 19.9638 20.2353 19.8732V4.12676C20.2353 4.03618 20.1975 3.95323 20.1221 3.87794C20.0468 3.80245 19.9638 3.76471 19.8732 3.76471H4.12676C4.03618 3.76471 3.95324 3.80245 3.87794 3.87794C3.80245 3.95323 3.76471 4.03618 3.76471 4.12676V7.43C3.76471 7.6802 3.6802 7.8898 3.51118 8.05882C3.34235 8.22765 3.13275 8.31206 2.88235 8.31206C2.63196 8.31206 2.42235 8.22765 2.25353 8.05882C2.08451 7.8898 2 7.6802 2 7.43V4.12676C2 3.53245 2.20588 3.02941 2.61765 2.61765C3.02941 2.20588 3.53245 2 4.12676 2H19.8732C20.4676 2 20.9706 2.20588 21.3824 2.61765C21.7941 3.02941 22 3.53245 22 4.12676V19.8732C22 20.4676 21.7941 20.9706 21.3824 21.3824C20.9706 21.7941 20.4676 22 19.8732 22H4.12676ZM12.2897 12.8824H2.88235C2.63196 12.8824 2.42235 12.7978 2.25353 12.6288C2.08451 12.46 2 12.2504 2 12C2 11.7496 2.08451 11.54 2.25353 11.3712C2.42235 11.2022 2.63196 11.1176 2.88235 11.1176H12.2897L9.81912 8.64706C9.64402 8.47216 9.55765 8.26745 9.56 8.03294C9.56235 7.79824 9.64873 7.58971 9.81912 7.40735C10.0015 7.2248 10.2111 7.13049 10.4479 7.12441C10.6848 7.11833 10.8945 7.20657 11.0771 7.38912L14.9435 11.2556C15.0535 11.3658 15.1312 11.482 15.1765 11.6041C15.2218 11.7263 15.2444 11.8582 15.2444 12C15.2444 12.1418 15.2218 12.2737 15.1765 12.3959C15.1312 12.518 15.0535 12.6342 14.9435 12.7444L11.0771 16.6109C10.902 16.7858 10.6941 16.8722 10.4535 16.87C10.2129 16.8676 10.0015 16.7752 9.81912 16.5926C9.64873 16.4103 9.56049 16.2037 9.55441 15.9729C9.54833 15.7422 9.63657 15.5355 9.81912 15.3529L12.2897 12.8824Z" fill="#111827"/>
</g>
</svg>
