<svg width="20" height="20" viewBox="0 0 20 20" fill="none" xmlns="http://www.w3.org/2000/svg">
<mask id="mask0_2534_11099" style="mask-type:alpha" maskUnits="userSpaceOnUse" x="0" y="0" width="20" height="20">
<rect width="20" height="20" fill="#D9D9D9"/>
</mask>
<g mask="url(#mask0_2534_11099)">
<path d="M10 18C8.90316 18 7.86807 17.7898 6.89474 17.3693C5.9214 16.9488 5.07256 16.3763 4.34821 15.6518C3.62372 14.9274 3.05123 14.0786 2.63074 13.1053C2.21025 12.1319 2 11.0968 2 10C2 8.89446 2.21025 7.85719 2.63074 6.88821C3.05123 5.91923 3.62372 5.07256 4.34821 4.34821C5.07256 3.62372 5.9214 3.05123 6.89474 2.63074C7.86807 2.21025 8.90316 2 10 2C11.1055 2 12.1428 2.21025 13.1118 2.63074C14.0808 3.05123 14.9274 3.62372 15.6518 4.34821C16.3763 5.07256 16.9488 5.91923 17.3693 6.88821C17.7898 7.85719 18 8.89446 18 10C18 11.0968 17.7898 12.1319 17.3693 13.1053C16.9488 14.0786 16.3763 14.9274 15.6518 15.6518C14.9274 16.3763 14.0808 16.9488 13.1118 17.3693C12.1428 17.7898 11.1055 18 10 18ZM10 16.7189C10.4298 16.149 10.7914 15.5741 11.0851 14.9943C11.3787 14.4145 11.6178 13.7808 11.8025 13.0931H8.19747C8.39298 13.8024 8.63488 14.4469 8.92316 15.0267C9.2113 15.6065 9.57025 16.1706 10 16.7189ZM8.36926 16.4874C8.04646 16.0242 7.75656 15.4977 7.49958 14.9078C7.2426 14.3178 7.04288 13.7128 6.90042 13.0931H4.04379C4.48856 13.9676 5.08505 14.7023 5.83326 15.2973C6.58147 15.8921 7.42681 16.2888 8.36926 16.4874ZM11.6307 16.4874C12.5732 16.2888 13.4185 15.8921 14.1667 15.2973C14.9149 14.7023 15.5114 13.9676 15.9562 13.0931H13.0996C12.93 13.7182 12.7168 14.3258 12.4598 14.9158C12.2029 15.5058 11.9266 16.0297 11.6307 16.4874ZM3.51411 11.8299H6.64463C6.59172 11.5169 6.55333 11.21 6.52947 10.9093C6.50575 10.6086 6.49389 10.3055 6.49389 10C6.49389 9.69446 6.50575 9.39137 6.52947 9.09074C6.55333 8.78996 6.59172 8.48309 6.64463 8.17011H3.51411C3.43312 8.45614 3.37109 8.75354 3.328 9.06232C3.28477 9.37109 3.26316 9.68365 3.26316 10C3.26316 10.3164 3.28477 10.6289 3.328 10.9377C3.37109 11.2465 3.43312 11.5439 3.51411 11.8299ZM7.90758 11.8299H12.0924C12.1452 11.5169 12.1835 11.2128 12.2074 10.9175C12.2311 10.6222 12.2429 10.3164 12.2429 10C12.2429 9.68365 12.2311 9.37782 12.2074 9.08253C12.1835 8.78723 12.1452 8.48309 12.0924 8.17011H7.90758C7.85481 8.48309 7.81649 8.78723 7.79263 9.08253C7.76891 9.37782 7.75705 9.68365 7.75705 10C7.75705 10.3164 7.76891 10.6222 7.79263 10.9175C7.81649 11.2128 7.85481 11.5169 7.90758 11.8299ZM13.3554 11.8299H16.4859C16.5669 11.5439 16.6289 11.2465 16.672 10.9377C16.7152 10.6289 16.7368 10.3164 16.7368 10C16.7368 9.68365 16.7152 9.37109 16.672 9.06232C16.6289 8.75354 16.5669 8.45614 16.4859 8.17011H13.3554C13.4083 8.48309 13.4467 8.78996 13.4705 9.09074C13.4942 9.39137 13.5061 9.69446 13.5061 10C13.5061 10.3055 13.4942 10.6086 13.4705 10.9093C13.4467 11.21 13.4083 11.5169 13.3554 11.8299ZM13.0996 6.90695H15.9562C15.5061 6.02161 14.9137 5.28688 14.1789 4.70274C13.4442 4.11874 12.5948 3.7193 11.6307 3.50442C11.9535 3.99453 12.2407 4.5306 12.4922 5.11263C12.7439 5.69453 12.9463 6.29263 13.0996 6.90695ZM8.19747 6.90695H11.8025C11.607 6.20295 11.3611 5.55432 11.0648 4.96105C10.7684 4.36779 10.4135 3.80779 10 3.28105C9.58653 3.80779 9.23158 4.36779 8.93516 4.96105C8.63888 5.55432 8.39298 6.20295 8.19747 6.90695ZM4.04379 6.90695H6.90042C7.05368 6.29263 7.25614 5.69453 7.50779 5.11263C7.7593 4.5306 8.04646 3.99453 8.36926 3.50442C7.39972 3.7193 6.54898 4.12014 5.81705 4.70695C5.08498 5.29361 4.49389 6.02695 4.04379 6.90695Z" fill="#4B5563"/>
</g>
</svg>
