<svg width="294" height="62" viewBox="0 0 294 62" fill="none" xmlns="http://www.w3.org/2000/svg">
<path d="M66.7354 2.3667C76.609 2.36692 84.791 12.119 84.791 24.3901C84.791 36.6613 76.609 46.4134 66.7354 46.4136C56.8616 46.4136 48.6787 36.6614 48.6787 24.3901C48.6787 12.1189 56.8616 2.3667 66.7354 2.3667Z" fill="white" stroke="#1F2937" stroke-width="1.14317"/>
<path d="M61.293 10.5742C68.4705 10.5742 74.3359 17.7207 74.3359 26.5996C74.3359 35.4785 68.4705 42.624 61.293 42.624C54.1156 42.6238 48.2501 35.4783 48.25 26.5996C48.25 17.7208 54.1155 10.5744 61.293 10.5742Z" fill="black" stroke="#111827" stroke-width="0.285793"/>
<path d="M105.665 2.3667C115.539 2.36692 123.721 12.119 123.721 24.3901C123.721 36.6613 115.539 46.4134 105.665 46.4136C95.7913 46.4136 87.6084 36.6614 87.6084 24.3901C87.6084 12.1189 95.7913 2.3667 105.665 2.3667Z" fill="white" stroke="#1F2937" stroke-width="1.14317"/>
<path d="M100.327 11.2891C107.044 11.2891 112.761 17.9791 112.761 26.5996C112.761 35.2201 107.044 41.9102 100.327 41.9102C93.6103 41.9099 87.8946 35.2199 87.8945 26.5996C87.8945 17.9793 93.6102 11.2894 100.327 11.2891Z" fill="black" stroke="#111827" stroke-width="1.71476"/>
<path d="M0.00627896 41.0262V4.82841C0.00627896 3.57515 1.05487 2.53479 3.14995 1.7033C5.24503 0.871817 7.71057 0.456073 10.5466 0.456073C12.1519 0.456073 13.6651 0.642857 15.0821 1.01642C16.499 1.38999 17.5853 1.86599 18.3388 2.4424C19.3685 3.69566 20.3083 4.97101 21.1622 6.27247C22.014 7.57392 23.9354 10.6066 26.9221 15.3766C27.1984 15.3766 27.4495 15.2923 27.6756 15.1236C27.9016 14.9549 28.0146 14.6958 28.0146 14.3463C28.0146 13.9969 27.7007 13.316 27.0728 12.3058L23.0061 5.58558V3.59925C24.287 2.58701 25.8421 1.80573 27.6735 1.25141C29.5049 0.697084 31.4011 0.419922 33.358 0.419922C36.5457 0.419922 39.118 0.974246 41.0749 2.08089C43.3583 3.40645 44.5011 5.47713 44.5011 8.29495V42.5064C44.5011 44.5771 43.4714 46.0834 41.414 47.0214C39.6579 47.8649 37.3096 48.2867 34.3731 48.2867C32.7406 48.2867 31.1541 48.118 29.6116 47.7805C28.0691 47.4431 26.8572 47.0093 25.9782 46.4791C24.1949 44.2879 22.4264 41.8316 20.6704 39.1102L16.8297 32.9684C16.1014 33.0648 15.7372 33.4384 15.7372 34.0891C15.7372 34.4988 16.1014 35.2821 16.8297 36.437L21.5348 43.7336V45.6476C18.6234 47.4532 15.3416 48.357 11.6893 48.357C8.03707 48.357 5.17596 47.7183 3.10599 46.4429C1.03603 45.1656 0 43.36 0 41.0242L0.00627896 41.0262Z" fill="#316CEC"/>
<path d="M128.242 41.0745V4.87675C128.242 3.62349 129.29 2.58313 131.385 1.75164C133.48 0.920157 135.946 0.504413 138.782 0.504413C140.387 0.504413 141.9 0.691197 143.317 1.06476C144.734 1.43833 145.821 1.91433 146.574 2.49074C147.604 3.744 148.544 5.01935 149.398 6.32081C150.249 7.62226 152.171 10.655 155.157 15.425C155.434 15.425 155.685 15.3406 155.911 15.1719C156.137 15.0032 156.25 14.7441 156.25 14.3947C156.25 14.0452 155.936 13.3643 155.308 12.3541L151.241 5.63392V3.64759C152.522 2.63535 154.077 1.85407 155.909 1.29975C157.74 0.745424 159.636 0.468262 161.593 0.468262C164.781 0.468262 167.353 1.02259 169.31 2.12923C171.594 3.45479 172.736 5.52547 172.736 8.34329V42.5548C172.736 44.6254 171.707 46.1318 169.649 47.0697C167.893 47.9132 165.545 48.335 162.609 48.335C160.976 48.335 159.389 48.1663 157.847 47.8289C156.304 47.4915 155.093 47.0576 154.214 46.5274C152.43 44.3362 150.662 41.8799 148.906 39.1585L145.065 33.0168C144.337 33.1132 143.973 33.4867 143.973 34.1375C143.973 34.5472 144.337 35.3305 145.065 36.4853L149.77 43.7819V45.6959C146.859 47.5015 143.577 48.4053 139.925 48.4053C136.272 48.4053 133.411 47.7666 131.341 46.4913C129.271 45.2139 128.235 43.4083 128.235 41.0725L128.242 41.0745Z" fill="#FD6767"/>
<path d="M199.546 33.38C199.797 33.38 200.023 33.3197 200.224 33.1992V29.9114C201.93 28.8028 204.322 27.901 207.397 27.2021C210.471 26.5031 213.464 26.1537 216.376 26.1537C217.707 27.4551 218.816 29.3993 219.708 31.9881C220.597 34.577 221.068 36.9188 221.12 39.0136C220.618 39.9776 219.77 41.012 218.58 42.1206C217.387 43.2293 215.951 44.2516 214.268 45.1915C210.101 47.5514 205.32 48.7324 199.925 48.7324C192.193 48.7324 186.109 46.5773 181.666 42.2652C177.073 37.907 174.775 31.8676 174.775 24.1473C174.775 16.4269 177.285 10.3655 182.304 5.95899C184.512 3.98471 187.084 2.49647 190.021 1.49828C192.957 0.498089 196.044 0 199.282 0C205.607 0 210.789 1.46816 214.831 4.40648C218.873 7.3448 220.892 10.97 220.892 15.2801C220.892 18.5317 219.85 20.9338 217.767 22.4863C215.683 24.0388 212.859 24.8161 209.297 24.8161C207.34 24.8161 205.369 24.3521 203.387 23.4242C201.404 22.4963 200.224 21.6247 199.847 20.8052C199.847 18.831 199.885 17.2764 199.96 16.1457C199.91 16.1216 199.822 16.1096 199.697 16.1096H199.433C199.056 16.1096 198.761 16.212 198.548 16.4168C198.334 16.6217 198.146 17.0495 197.982 17.7002C197.819 18.351 197.738 20.1204 197.738 23.0105C197.738 29.9235 198.34 33.378 199.544 33.378L199.546 33.38Z" fill="#66D191"/>
<path d="M269.23 9.46549V45.3741C266.419 47.3966 262.817 48.4088 258.426 48.4088C255.037 48.4088 252.352 47.746 250.37 46.4225C248.285 45.0728 247.245 43.1226 247.245 40.5699V33.4179H249.918C250.948 33.4179 251.592 33.2914 251.856 33.0383C252.12 32.7853 252.252 32.3695 252.252 31.7911H240.43C240.43 32.3695 240.543 32.7853 240.769 33.0383C240.995 33.2914 241.535 33.4179 242.387 33.4179H245.248V45.3761C243.315 46.5811 241.483 47.3865 239.752 47.7962C238.021 48.206 236.251 48.4108 234.444 48.4108C231.056 48.4108 228.371 47.748 226.389 46.4245C224.304 45.0748 223.264 43.1246 223.264 40.5719V4.62318C224.568 3.29762 226.181 2.28136 228.101 1.57038C230.02 0.859397 232.021 0.503906 234.105 0.503906C237.142 0.503906 239.715 1.22694 241.822 2.67099C244.106 4.30786 245.248 6.57336 245.248 9.46348V15.8945H250.029C250.029 15.2678 249.91 14.84 249.671 14.6111C249.432 14.3821 249.049 14.2676 248.522 14.2676H247.241V4.62318C248.545 3.29762 250.159 2.28136 252.078 1.57038C253.997 0.859397 255.998 0.503906 258.083 0.503906C261.12 0.503906 263.692 1.22694 265.799 2.67099C268.083 4.30786 269.226 6.57336 269.226 9.46348L269.23 9.46549Z" fill="#FFDE73"/>
<path d="M294 7.69449V45.013C292.845 45.977 291.302 46.7824 289.37 47.4331C287.436 48.0839 285.09 48.4092 282.33 48.4092C279.569 48.4092 277.223 47.8188 275.289 46.6398C273.106 45.3625 272.013 43.5569 272.013 41.2211V3.90259C273.166 2.93855 274.711 2.13317 276.643 1.48244C278.575 0.831712 280.91 0.506348 283.646 0.506348C286.382 0.506348 288.753 1.08477 290.762 2.23962C292.92 3.56518 294 5.3828 294 7.69449Z" fill="#786ACF"/>
<path d="M100.273 50.2339C100.273 55.1967 93.8979 59.2196 86.0345 59.2196C78.1711 59.2196 71.7959 55.1967 71.7959 50.2339" stroke="black" stroke-width="5.37291" stroke-linecap="round" stroke-linejoin="round"/>
</svg>
