<svg width="16" height="16" viewBox="0 0 16 16" fill="none" xmlns="http://www.w3.org/2000/svg">
<circle cx="8" cy="8" r="8" transform="rotate(-180 8 8)" fill="#BFDBFE"/>
<mask id="mask0_2534_10280" style="mask-type:alpha" maskUnits="userSpaceOnUse" x="0" y="0" width="16" height="16">
<rect x="16" y="16" width="16" height="16" transform="rotate(-180 16 16)" fill="#D9D9D9"/>
</mask>
<g mask="url(#mask0_2534_10280)">
<path d="M8.56334 5.65816L8.56334 11.5018C8.56334 11.6431 8.50955 11.7615 8.40197 11.8568C8.29452 11.9523 8.16111 12 8.00174 12C7.84237 12 7.70896 11.9523 7.60151 11.8568C7.49393 11.7615 7.44015 11.6431 7.44015 11.5018L7.44015 5.65816L4.9519 7.86589C4.8482 7.95779 4.71784 8.00484 4.56085 8.00706C4.40397 8.00916 4.27125 7.9621 4.16268 7.86589C4.05422 7.76956 4 7.65286 4 7.51579C4 7.37871 4.05422 7.26201 4.16268 7.16569L7.52794 4.18003C7.66335 4.06001 7.82128 4 8.00174 4C8.1822 4 8.34013 4.06001 8.47554 4.18003L11.8408 7.16569C11.9444 7.2577 11.9974 7.37334 11.9999 7.51263C12.0023 7.65181 11.9493 7.76956 11.8408 7.86589C11.7322 7.96211 11.6007 8.01021 11.4462 8.01021C11.2917 8.01021 11.1602 7.96211 11.0516 7.86589L8.56334 5.65816Z" fill="white"/>
</g>
</svg>
