<svg width="20" height="20" viewBox="0 0 20 20" fill="none" xmlns="http://www.w3.org/2000/svg">
<mask id="mask0_2531_5035" style="mask-type:alpha" maskUnits="userSpaceOnUse" x="0" y="0" width="20" height="20">
<rect width="20" height="20" fill="#D9D9D9"/>
</mask>
<g mask="url(#mask0_2531_5035)">
<path d="M16.5624 10C16.5624 8.57965 16.2093 7.28342 15.503 6.11133C14.7967 4.93907 13.8497 4.06206 12.6619 3.48032C12.4775 3.38632 12.3417 3.24592 12.2545 3.05912C12.1673 2.87249 12.1566 2.68208 12.2224 2.48788C12.3015 2.28077 12.4387 2.13684 12.6341 2.05609C12.8295 1.97518 13.0273 1.9818 13.2277 2.07598C14.6728 2.78306 15.8295 3.84703 16.6978 5.2679C17.5659 6.6886 18 8.26588 18 9.99974C18 11.7334 17.5659 13.3108 16.6978 14.7318C15.8295 16.1529 14.6728 17.2169 13.2277 17.924C13.0273 18.0182 12.8295 18.0248 12.6341 17.9439C12.4387 17.8632 12.3015 17.7192 12.2224 17.5121C12.1566 17.3179 12.1673 17.1275 12.2545 16.9409C12.3417 16.7541 12.4775 16.6137 12.6619 16.5197C13.8497 15.9379 14.7967 15.0609 15.503 13.8887C16.2093 12.7166 16.5624 11.4204 16.5624 10ZM5.55763 12.6083H2.86628C2.62074 12.6083 2.41497 12.5188 2.24898 12.3397C2.08299 12.1608 2 11.9391 2 11.6745V8.37718C2 8.11257 2.08299 7.89082 2.24898 7.71194C2.41497 7.53289 2.62074 7.44336 2.86628 7.44336H5.55763L8.42583 4.35242C8.65556 4.10485 8.92004 4.04898 9.21927 4.18482C9.51849 4.32065 9.6681 4.56323 9.6681 4.91255V15.1391C9.6681 15.4884 9.51849 15.731 9.21927 15.8668C8.92004 16.0027 8.65556 15.9468 8.42583 15.6992L5.55763 12.6083ZM13.9815 10.0269C13.9815 10.6713 13.8574 11.2812 13.6092 11.8565C13.3611 12.4319 13.0265 12.9156 12.6056 13.3076C12.4698 13.4056 12.3272 13.4155 12.1778 13.3373C12.0286 13.2592 11.954 13.13 11.954 12.9499V7.05006C11.954 6.86997 12.0286 6.74085 12.1778 6.66269C12.3272 6.58452 12.4698 6.59391 12.6056 6.69083C13.0265 7.09456 13.3611 7.59039 13.6092 8.17833C13.8574 8.76645 13.9815 9.38262 13.9815 10.0269ZM8.23029 6.77192L6.16942 8.99284H3.43757V11.0588H6.16942L8.23029 13.2797V6.77192Z" fill="#4B5563"/>
</g>
</svg>
